# xmcd CD database file
#
# Track frame offsets:
#	150
#	22170
#	38896
#	56676
#	77775
#	88800
#	102133
#	119948
#	141231
#	165445
#	181462
#	194811
#
# Disc length: 2757 seconds
#
# Revision: 0
# Processed by: cddbd v1.5.2PL0 Copyright (c) Steve Scherf et al.
# Submitted via: CDex 1.70beta2
#
DISCID=b10ac30c
DTITLE=The Blues Preachers  - Dead Catz Can Bounce
DYEAR=2010
DGENRE=Blues
TTITLE0=Dead Catz Can Bounce
TTITLE1=The Tree Train Agreement
TTITLE2=Arrivals and Departures
TTITLE3=Without You
TTITLE4=Little Martha
TTITLE5=I Saw The Light
TTITLE6=Divine Justice Coming Down
TTITLE7=Big Jack Lang
TTITLE8=Gambling Bar Room Blues
TTITLE9=Bill From Erskinville
TTITLE10=Before The Curtain Call
TTITLE11=Salty Dog
EXTD=YEAR: 2010
EXTT0=
EXTT1=
EXTT2=
EXTT3=
EXTT4=
EXTT5=
EXTT6=
EXTT7=
EXTT8=
EXTT9=
EXTT10=
EXTT11=
PLAYORDER=
